<svg width="1024" height="1024" xmlns="http://www.w3.org/2000/svg">
  <!-- Background -->
  <rect width="1024" height="1024" fill="#1A1D21"/>
  
  <!-- Heart shape (teal color #4A90A4) -->
  <path d="M512,400 C512,400 400,300 350,300 C300,300 250,350 250,400 C250,450 350,550 512,700 C674,550 774,450 774,400 C774,350 724,300 674,300 C624,300 512,400 512,400 Z" fill="#4A90A4"/>
  
  <!-- Subtle gradient overlay for depth -->
  <defs>
    <radialGradient id="heartGradient" cx="50%" cy="50%">
      <stop offset="0%" style="stop-color:#4A90A4;stop-opacity:1" />
      <stop offset="100%" style="stop-color:#3A7080;stop-opacity:0.8" />
    </radialGradient>
  </defs>
  <path d="M512,400 C512,400 400,300 350,300 C300,300 250,350 250,400 C250,450 350,550 512,700 C674,550 774,450 774,400 C774,350 724,300 674,300 C624,300 512,400 512,400 Z" fill="url(#heartGradient)"/>
</svg>
